<mxfile host="app.diagrams.net" modified="2024-06-16T11:04:46.572Z" agent="Mozilla/5.0 (Windows NT 10.0; Win64; x64) AppleWebKit/537.36 (KHTML, like Gecko) Chrome/126.0.0.0 Safari/537.36 Edg/126.0.0.0" version="24.5.4" etag="AfzRUoBkJPrYr6ZiwvWR" type="github">
  <diagram name="Page-1" id="vkO3W4j8TYYy2r-Rxw5b">
    <mxGraphModel>
      <root>
        <mxCell id="0" />
        <mxCell id="1" parent="0" />
      </root>
    </mxGraphModel>
  </diagram>
</mxfile>
